<svg width="270" height="130" viewBox="0 0 270 130" fill="none" xmlns="http://www.w3.org/2000/svg">
<mask id="path-1-inside-1" fill="white">
<path fill-rule="evenodd" clip-rule="evenodd" d="M0 10C0 4.47715 4.47715 0 10 0H260C265.523 0 270 4.48478 270 10.0076V59.4893C269.938 59.5258 269.878 59.57 269.821 59.6224L264.795 64.2654C264.367 64.6614 264.367 65.3386 264.795 65.7346L269.821 70.3776C269.878 70.43 269.938 70.4742 270 70.5107V119.992C270 125.515 265.523 130 260 130H9.99999C4.47715 130 0 125.523 0 120V70.5107C0.0619711 70.4742 0.121821 70.43 0.178551 70.3776L5.20482 65.7346C5.63342 65.3386 5.63342 64.6614 5.20482 64.2654L0.17855 59.6224C0.12182 59.57 0.0619709 59.5258 0 59.4893V10Z"/>
</mask>
<path d="M270 59.4893L270.507 60.3514L271 60.0615V59.4893H270ZM269.821 59.6224L269.143 58.8878V58.8878L269.821 59.6224ZM264.795 64.2654L264.117 63.5309V63.5309L264.795 64.2654ZM264.795 65.7346L264.117 66.4691L264.795 65.7346ZM269.821 70.3776L269.143 71.1122V71.1122L269.821 70.3776ZM270 70.5107H271V69.9385L270.507 69.6485L270 70.5107ZM0 70.5107L-0.50678 69.6486L-1 69.9385V70.5107H0ZM0.178551 70.3776L-0.5 69.6431L-0.500009 69.6431L0.178551 70.3776ZM5.20482 65.7346L4.52628 65L4.52627 65L5.20482 65.7346ZM5.20482 64.2654L4.52627 65L4.52627 65L5.20482 64.2654ZM0.17855 59.6224L-0.50001 60.3569L-0.500001 60.3569L0.17855 59.6224ZM0 59.4893H-1V60.0615L-0.506781 60.3514L0 59.4893ZM10 -1C3.92487 -1 -1 3.92487 -1 10H1C1 5.02944 5.02944 1 10 1V-1ZM260 -1H10V1H260V-1ZM271 10.0076C271 3.93349 266.076 -1 260 -1V1C264.97 1 269 5.03607 269 10.0076H271ZM271 59.4893V10.0076H269V59.4893H271ZM270.5 60.3569C270.505 60.3524 270.507 60.3512 270.507 60.3514L269.493 58.6272C269.369 58.7004 269.251 58.7875 269.143 58.8878L270.5 60.3569ZM265.474 65L270.5 60.3569L269.143 58.8878L264.117 63.5309L265.474 65ZM265.474 65L264.117 63.5309C263.259 64.3227 263.259 65.6773 264.117 66.4691L265.474 65ZM270.5 69.6431L265.474 65L264.117 66.4691L269.143 71.1122L270.5 69.6431ZM270.507 69.6485C270.507 69.6488 270.505 69.6476 270.5 69.6431L269.143 71.1122C269.251 71.2125 269.369 71.2996 269.493 71.3728L270.507 69.6485ZM271 119.992V70.5107H269V119.992H271ZM260 131C266.076 131 271 126.067 271 119.992H269C269 124.964 264.97 129 260 129V131ZM9.99999 131H260V129H9.99999V131ZM-1 120C-1 126.075 3.92486 131 9.99999 131V129C5.02943 129 1 124.971 1 120H-1ZM-1 70.5107V120H1V70.5107H-1ZM-0.500009 69.6431C-0.504848 69.6476 -0.507216 69.6488 -0.50678 69.6486L0.50678 71.3727C0.631158 71.2996 0.74849 71.2125 0.85711 71.1122L-0.500009 69.6431ZM4.52627 65L-0.5 69.6431L0.857102 71.1122L5.88338 66.4691L4.52627 65ZM4.52627 65L4.52628 65L5.88337 66.4691C6.74057 65.6773 6.74057 64.3227 5.88337 63.5309L4.52627 65ZM-0.500001 60.3569L4.52627 65L5.88337 63.5309L0.857102 58.8878L-0.500001 60.3569ZM-0.506781 60.3514C-0.507217 60.3512 -0.50485 60.3524 -0.50001 60.3569L0.857111 58.8878C0.748491 58.7875 0.631159 58.7004 0.506781 58.6273L-0.506781 60.3514ZM-1 10V59.4893H1V10H-1Z" fill="#DF212D" mask="url(#path-1-inside-1)"/>
</svg>
