<svg width="300" height="144" viewBox="0 0 300 144" fill="none" xmlns="http://www.w3.org/2000/svg">
<mask id="path-1-inside-1" fill="white">
<path fill-rule="evenodd" clip-rule="evenodd" d="M0 10C0 4.47715 4.47715 0 10 0H290C295.523 0 300 4.48039 300 10.0032V67.5918C299.882 67.6354 299.768 67.7035 299.665 67.7988L295.423 71.7122C294.994 72.1082 294.994 72.7862 295.423 73.1822L299.665 77.0956C299.768 77.1909 299.882 77.2591 300 77.3026V133.997C300 139.52 295.523 144 290 144H10C4.47716 144 0 139.523 0 134V77.3026C0.117914 77.2591 0.231523 77.1909 0.334816 77.0956L4.57652 73.1822C5.00572 72.7862 5.00572 72.1082 4.57652 71.7122L0.334816 67.7988C0.231523 67.7035 0.117914 67.6354 0 67.5918V10Z"/>
</mask>
<path d="M300 67.5918L300.347 68.5298L301 68.2884V67.5918H300ZM299.665 67.7988L298.987 67.0638L298.987 67.0638L299.665 67.7988ZM295.423 71.7122L296.102 72.4472L296.102 72.4472L295.423 71.7122ZM295.423 73.1822L294.745 73.9172V73.9172L295.423 73.1822ZM299.665 77.0956L298.987 77.8306L298.987 77.8307L299.665 77.0956ZM300 77.3026H301V76.6061L300.347 76.3646L300 77.3026ZM0 77.3026L-0.346666 76.3646L-1 76.6061V77.3026H0ZM0.334816 77.0956L1.01291 77.8306L1.01291 77.8306L0.334816 77.0956ZM4.57652 73.1822L5.25461 73.9172H5.25462L4.57652 73.1822ZM4.57652 71.7122L3.89842 72.4472L3.89842 72.4472L4.57652 71.7122ZM0.334816 67.7988L1.01291 67.0638L1.01291 67.0638L0.334816 67.7988ZM0 67.5918H-1V68.2884L-0.346612 68.5298L0 67.5918ZM10 -1C3.92487 -1 -1 3.92486 -1 10H1C1 5.02943 5.02944 1 10 1V-1ZM290 -1H10V1H290V-1ZM301 10.0032C301 3.92853 296.076 -1 290 -1V1C294.97 1 299 5.03225 299 10.0032H301ZM301 67.5918V10.0032H299V67.5918H301ZM300.343 68.5338C300.346 68.5317 300.347 68.5303 300.348 68.5295C300.349 68.5286 300.35 68.5283 300.35 68.5283C300.35 68.5282 300.35 68.5284 300.349 68.5287C300.349 68.5291 300.348 68.5294 300.347 68.5298L299.653 66.6538C299.412 66.7431 299.186 66.8805 298.987 67.0638L300.343 68.5338ZM296.102 72.4472L300.343 68.5338L298.987 67.0638L294.745 70.9773L296.102 72.4472ZM296.102 72.4472L296.102 72.4472L294.745 70.9773C293.887 71.7693 293.887 73.1252 294.745 73.9172L296.102 72.4472ZM300.343 76.3607L296.102 72.4472L294.745 73.9172L298.987 77.8306L300.343 76.3607ZM300.347 76.3646C300.348 76.365 300.349 76.3654 300.349 76.3657C300.35 76.366 300.35 76.3662 300.35 76.3662C300.35 76.3661 300.349 76.3658 300.348 76.365C300.347 76.3642 300.346 76.3628 300.343 76.3606L298.987 77.8307C299.186 78.0139 299.412 78.1514 299.653 78.2406L300.347 76.3646ZM301 133.997V77.3026H299V133.997H301ZM290 145C296.076 145 301 140.071 301 133.997H299C299 138.968 294.97 143 290 143V145ZM10 145H290V143H10V145ZM-1 134C-1 140.075 3.92488 145 10 145V143C5.02944 143 1 138.971 1 134H-1ZM-1 77.3026V134H1V77.3026H-1ZM-0.343278 76.3607C-0.345567 76.3628 -0.347272 76.3642 -0.348338 76.365C-0.349404 76.3658 -0.349977 76.3661 -0.35004 76.3662C-0.350104 76.3662 -0.349809 76.366 -0.349168 76.3657C-0.348529 76.3654 -0.347685 76.365 -0.346666 76.3646L0.346666 78.2406C0.588155 78.1514 0.814178 78.014 1.01291 77.8306L-0.343278 76.3607ZM3.89842 72.4472L-0.34328 76.3607L1.01291 77.8306L5.25461 73.9172L3.89842 72.4472ZM3.89842 72.4472H3.89842L5.25462 73.9172C6.11302 73.1252 6.11303 71.7693 5.25461 70.9773L3.89842 72.4472ZM-0.34328 68.5338L3.89842 72.4472L5.25461 70.9773L1.01291 67.0638L-0.34328 68.5338ZM-0.346612 68.5298C-0.347651 68.5294 -0.34851 68.5291 -0.349159 68.5287C-0.34981 68.5284 -0.350111 68.5282 -0.35005 68.5283C-0.34999 68.5283 -0.349417 68.5287 -0.348349 68.5295C-0.347281 68.5303 -0.345572 68.5317 -0.343277 68.5338L1.01291 67.0638C0.814204 66.8805 0.588174 66.7431 0.346612 66.6538L-0.346612 68.5298ZM-1 10V67.5918H1V10H-1Z" fill="#DF212D" mask="url(#path-1-inside-1)"/>
</svg>
